<?xml version="1.0" encoding="UTF-8"?>
<svg version="1.1" viewBox="0 0 2048 892" xmlns="http://www.w3.org/2000/svg">
 <g transform="translate(2.0827e-6 513.75)">
  <g transform="matrix(1.6516 0 0 1.6519 -561.55 291.75)">
   <path d="m906.83-157.64c-99.158 0-210.43 86.317-246.83 210h600c-36.391-123.68-147.67-210-246.83-210z" fill="#4d4d4d"/>
   <path transform="matrix(.8 0 0 .8 160 -782.04)" d="m1200 568c0 110.46-89.543 200-200 200-110.46 0-200-89.543-200-200s89.543-200 200-200c110.46 0 200 89.543 200 200z" fill="#4d4d4d"/>
   <path d="m940.39-145.53h39.211l12.109 161.56-31.715 24.219-31.715-24.219z" fill="#fff"/>
  </g>
  <g transform="matrix(1.2959 0 0 1.2961 415.21 310.38)">
   <path transform="matrix(.77168 0 0 .77168 -320.41 -1007.8)" d="m1590.3 1101.8c-53.671 0-110.1 19.531-161.03 53.938 52.069 58.079 93.572 129.64 117.28 210.22a28.287 28.287 0 0 1 1.0937 7.9688h500.31c-47.158-160.28-191.35-272.12-319.84-272.12h-137.81z" fill="#4d4d4d"/>
   <path transform="matrix(.8 0 0 .8 160 -782.04)" d="m1200 568c0 110.46-89.543 200-200 200-110.46 0-200-89.543-200-200s89.543-200 200-200c110.46 0 200 89.543 200 200z" fill="#4d4d4d"/>
   <path d="m940.39-145.53h39.211l12.109 161.56-31.715 24.219-31.715-24.219z" fill="#fff"/>
  </g>
  <g transform="matrix(1.2959 0 0 1.2961 -855.27 310.38)">
   <path transform="matrix(.77168 0 0 .77168 660 -1007.8)" d="m319.84 1101.8c-128.5 0-272.69 111.85-319.84 272.12h500.28a28.287 28.287 0 0 1 1.125 -7.9688c23.709-80.581 65.212-152.14 117.28-210.22-50.935-34.407-107.36-53.938-161.03-53.938h-137.81z" fill="#4d4d4d"/>
   <path transform="matrix(.8 0 0 .8 160 -782.04)" d="m1200 568c0 110.46-89.543 200-200 200-110.46 0-200-89.543-200-200s89.543-200 200-200c110.46 0 200 89.543 200 200z" fill="#4d4d4d"/>
   <path d="m940.39-145.53h39.211l12.109 161.56-31.715 24.219-31.715-24.219z" fill="#fff"/>
  </g>
 </g>
</svg>
